Coordinates
version=1
nRows=14
nColumns=36
inDegrees=yes

Units are S.I. units (second, meters, Newtons, ...)
If the header above contains a line with 'inDegrees', this indicates whether rotational values are in degrees (yes) or radians (no).

endheader
time	pelvis_tilt	pelvis_list	pelvis_rotation	pelvis_tx	pelvis_ty	pelvis_tz	hip_flexion_r	hip_adduction_r	hip_rotation_r	knee_angle_r	knee_angle_r_beta	ankle_angle_r	subtalar_angle_r	mtp_angle_r	hip_flexion_l	hip_adduction_l	hip_rotation_l	knee_angle_l	knee_angle_l_beta	ankle_angle_l	subtalar_angle_l	mtp_angle_l	lumbar_extension	lumbar_bending	lumbar_rotation	arm_flex_r	arm_add_r	arm_rot_r	elbow_flex_r	pro_sup_r	arm_flex_l	arm_add_l	arm_rot_l	elbow_flex_l	pro_sup_l
     44.96666670	      5.42595861	      0.54144023	     -1.39184935	      0.45330790	      1.02075286	      0.75446709	     18.49211222	     -2.35454472	     -0.74629804	      6.92842500	      0.12092383	      0.28139705	     -6.17978613	     -7.49999987	    -16.28656059	      0.86805573	      1.42367492	     10.51998078	      0.18360830	      9.97306960	     -8.27104157	     -7.49999987	    -19.26852311	     -1.09626603	      6.92492356	    -10.25913622	    -13.39480970	     -8.44819105	     26.84824161	     80.68630967	     24.31321695	    -14.72069939	     20.31414090	     33.56950661	     78.50763713
     44.98333330	      4.93944619	      0.06129140	     -1.13529545	      0.46097503	      1.01588027	      0.76014041	     18.19042090	     -1.57000499	     -0.78464083	      5.50189384	      0.09602616	      0.43448219	     -5.02986990	     -7.49999987	    -16.65207113	      0.01387569	      0.96448513	     11.44348490	      0.19972649	     10.51465896	     -8.43732859	     -7.49999987	    -18.23638615	     -0.54004796	      7.20882574	    -10.91030113	    -13.36690327	     -8.56975914	     26.74862348	     80.66259568	     23.98395359	    -14.76033417	     20.25295554	     33.64774090	     78.50305118
     45.00000000	      4.58765024	     -0.63654614	     -0.85026258	      0.46645188	      1.01341592	      0.76385864	     17.89261607	     -0.57561370	     -1.47138229	      5.79214370	      0.10109198	      0.54874973	     -3.31174412	     -7.49999987	    -16.84533375	     -1.13627005	      0.09484459	     12.82893836	      0.22390721	     11.51373539	     -7.35337396	     -7.49999987	    -17.32429550	      0.29102156	      7.18982788	    -11.05842172	    -13.35627707	     -8.63100453	     26.12965108	     80.15414114	     23.00897492	    -14.62584157	     18.51282408	     34.10646669	     77.98494514
     45.01666670	      4.60271466	     -1.36785224	     -0.66172102	      0.46974545	      1.01498978	      0.76616721	     17.35943441	      0.49143596	     -1.42098446	      7.11819549	      0.12423595	     -0.48131720	     -3.37998571	     -7.49999987	    -17.15556299	     -2.27104860	     -0.47118377	     14.52399184	      0.25349148	     11.81898935	     -6.97168342	     -7.49999987	    -16.82969244	      1.21625050	      7.08709147	    -11.09324914	    -13.48763528	     -8.39200302	     26.02634043	     80.05285424	     22.00727568	    -14.57515215	     17.33140775	     34.23394606	     77.92419350
     45.03333330	      4.49924364	     -2.08581042	     -0.63040790	      0.47231852	      1.01859239	      0.76920271	     17.12436720	      1.54087148	     -1.25850534	      8.92896760	      0.15583988	     -1.53967048	     -3.55874012	     -7.49999987	    -16.97844096	     -3.43582276	     -1.28658123	     16.80143227	      0.29324031	     12.01489996	     -6.04776744	     -7.49999987	    -16.21806431	      2.15590644	      6.72502378	    -10.53563593	    -13.69688136	     -7.62799102	     25.42840128	     79.33204100	     20.38575379	    -14.56411105	     15.40346934	     34.79130858	     77.31167434
     45.05000000	      4.61982962	     -2.77551026	     -0.66731123	      0.47306640	      1.02182491	      0.77323225	     16.70182427	      2.57129733	     -0.80813235	     10.70714997	      0.18687502	     -2.33548527	     -4.26707150	     -7.49999987	    -16.45819807	     -4.65933788	     -2.03940870	     20.03106627	      0.34960806	     11.53607862	     -5.35196482	     -7.49999987	    -16.12870841	      3.11348613	      6.13848963	     -9.70517490	    -14.11185963	     -6.15918018	     25.44117340	     79.51178773	     18.40887388	    -14.60626430	     12.72282354	     35.86586142	     78.13559567
     45.06666670	      4.62394879	     -3.48033448	     -0.86084620	      0.47180587	      1.02319847	      0.77663637	     16.44900246	      3.64633561	     -0.31208755	     12.48285728	      0.21786696	     -2.35712132	     -4.96348351	     -7.49999987	    -14.90617573	     -6.04891293	     -2.92216717	     24.82243974	      0.43323330	     10.01100526	     -5.21998277	     -7.49999987	    -15.90371004	      4.00171894	      6.05321428	     -8.72034917	    -14.28367823	     -5.40911378	     24.93114843	     79.13855971	     17.07231748	    -14.41119592	     11.28043033	     35.84845576	     78.17246878
     45.08333330	      4.58241209	     -4.24366456	     -0.98996588	      0.46965427	      1.02421263	      0.77821618	     16.12268582	      4.77735555	      0.15796459	     14.07909579	      0.24572658	     -1.53807486	     -5.72989798	     -7.49999987	    -12.20369124	     -7.65268258	     -3.38336176	     31.34654354	      0.54710039	      6.70348358	     -6.17952909	     -7.49999987	    -15.78774597	      5.01585250	      5.91953571	     -7.48805605	    -14.54743980	     -4.07178604	     24.48430214	     78.06698638	     15.71184448	    -14.16244816	      9.97424322	     36.04042304	     77.46972496
     45.10000000	      4.50768394	     -5.04375811	     -1.07274872	      0.46739285	      1.02522712	      0.77922313	     15.61614324	      5.92265849	      0.43264606	     15.27252354	      0.26655582	     -0.28698145	     -6.37498238	     -7.49999987	     -8.87470283	     -9.33719336	     -3.38832917	     38.53588635	      0.67257810	      2.06527102	     -7.78885731	     -7.49999987	    -15.60837709	      6.10844310	      5.78662618	     -5.97849137	    -14.89710749	     -2.24658189	     23.56218232	     77.76201573	     14.41235329	    -13.80416699	      8.82653926	     35.87065410	     77.62438320
     45.11666670	      4.61275043	     -5.82458732	     -1.10863691	      0.46522576	      1.02622190	      0.78032236	     14.63240787	      7.00825515	      0.64561597	     15.86533364	      0.27690231	      0.95983225	     -6.83653085	     -7.49999987	     -5.68480941	    -10.85688712	     -3.01715679	     45.26554652	      0.79003282	     -2.47748176	     -9.42479356	     -7.49999987	    -15.82728706	      7.19840675	      6.02569750	     -4.78544896	    -15.32767227	     -0.71068530	     23.44418595	     77.17094763	     13.31027345	    -13.24051521	      8.12863972	     35.74552594	     77.50939064
     45.13333330	      4.69335320	     -6.47217804	     -1.10397875	      0.46451745	      1.02716040	      0.78137061	     13.41349725	      7.94277414	      0.93212003	     15.94172925	      0.27823566	      1.86519731	     -7.35699599	     -7.49999987	     -2.45661275	    -12.02401870	     -2.34770650	     51.40024380	      0.89710349	     -6.38055773	    -11.00325377	     -7.49999987	    -16.03632519	      8.16971270	      5.78126220	     -2.98380364	    -15.91076892	      2.44420378	     22.96018940	     78.57217296	     11.66428087	    -12.67547984	      5.98026467	     35.97263453	     81.14107711
     45.15000000	      4.79877699	     -6.90911214	     -1.08684404	      0.46512148	      1.02881797	      0.78248921	     11.90477307	      8.63818718	      1.24255466	     15.57089074	      0.27176331	      2.66356671	     -7.58139905	     -7.49999987	      0.74163698	    -12.71053605	     -1.51773978	     56.82084571	      0.99171084	     -9.17528182	    -12.35907755	     -7.49999987	    -16.29717601	      8.89154316	      6.26508286	     -1.89012775	    -16.11335398	      2.40210632	     23.20332361	     78.51979504	     10.81547265	    -12.06758497	      5.88866790	     35.54088366	     81.40822564
     45.16666670	      5.00286535	     -7.17464070	     -1.02852933	      0.46453811	      1.03174176	      0.78389513	     10.04766394	      9.12001632	      1.46852105	     14.78511655	      0.25804896	      3.36277837	     -7.32154171	     -7.49999987	      3.82803388	    -12.90442619	     -0.50081027	     61.50749154	      1.07350824	    -10.33186930	    -13.19463084	     -7.49999987	    -16.73576792	      9.44643787	      6.53667033	     -0.41331909	    -16.33406644	      3.27581896	     23.17265437	     77.15484280	      9.84585059	    -11.45987210	      5.62925357	     35.22177275	     80.27216396
     45.18333330	      5.28543337	     -7.12495374	     -0.93377549	      0.46145108	      1.03518321	      0.78528648	      7.98668215	      9.26583081	      1.86792079	     13.78196207	      0.24054062	      3.79067091	     -7.29823109	     -7.49999987	      6.73526152	    -12.50432659	      0.48564705	     65.23163849	      1.13850687	    -10.04706497	    -13.70833597	     -7.49999987	    -17.31129746	      9.59994755	      6.72717069	      1.07289319	    -16.61492133	      4.34782406	     23.72626402	     76.35670075	      9.13119640	    -11.06159862	      5.76649989	     34.86447579	     79.65305903
